<?xml version="1.0" encoding="UTF-8"?>
<svg width="137px" height="46px" viewBox="0 0 137 46" version="1.1" xmlns="http://www.w3.org/2000/svg" xmlns:xlink="http://www.w3.org/1999/xlink">
    <!-- Generator: Sketch 53.1 (72631) - https://sketchapp.com -->
    <title>M</title>
    <desc>Created with Sketch.</desc>
    <g id="Page-1" stroke="none" stroke-width="1" fill="none" fill-rule="evenodd">
        <g id="Homepage" transform="translate(-242.000000, -315.000000)" fill="#1A1919" fill-rule="nonzero">
            <g id="Hello" transform="translate(236.000000, 317.000000)">
                <g id="M" transform="translate(75.000000, 21.000000) scale(-1, 1) translate(-75.000000, -21.000000) translate(8.000000, 0.000000)">
                    <path d="M2.15582037,43.0824584 C1.46400659,43.7742722 0.342354825,43.7742722 -0.349458953,43.0824584 C-1.04127273,42.3906446 -1.04127272,41.2689928 -0.349458936,40.5771791 L40.4803603,-0.252639671 C41.1721741,-0.94445345 42.2938259,-0.944453442 42.9856397,-0.252639654 C43.6774534,0.439174133 43.6774534,1.56082589 42.9856397,2.25263967 L2.15582037,43.0824584 Z" id="Stroke-9"></path>
                    <path d="M94.1558204,43.0824584 C93.4640066,43.7742722 92.3423548,43.7742722 91.650541,43.0824584 C90.9587273,42.3906446 90.9587273,41.2689928 91.6505411,40.5771791 L132.48036,-0.252639671 C133.172174,-0.94445345 134.293826,-0.944453442 134.98564,-0.252639654 C135.677453,0.439174133 135.677453,1.56082589 134.98564,2.25263967 L94.1558204,43.0824584 Z" id="Stroke-9" transform="translate(113.318090, 21.414909) scale(-1, 1) translate(-113.318090, -21.414909) "></path>
                    <path d="M40.7473603,2.25263966 C40.0555466,1.56082588 40.0555466,0.43917412 40.7473603,-0.252639663 C41.4391741,-0.944453446 42.5608259,-0.944453446 43.2526397,-0.252639663 L82.7526397,39.2473603 C83.4444534,39.9391741 83.4444534,41.0608259 82.7526397,41.7526397 C82.0608259,42.4444534 80.9391741,42.4444534 80.2473603,41.7526397 L40.7473603,2.25263966 Z" id="Stroke-11"></path>
                    <path d="M67.2526397,26.2196397 C66.5608259,26.9114534 65.4391741,26.9114534 64.7473603,26.2196397 C64.0555466,25.5278259 64.0555466,24.4061741 64.7473603,23.7143603 L89.7143603,-1.25263966 C90.4061741,-1.94445345 91.5278259,-1.94445345 92.2196397,-1.25263966 C92.9114534,-0.56082588 92.9114534,0.56082588 92.2196397,1.25263966 L67.2526397,26.2196397 Z" id="Stroke-12"></path>
                </g>
            </g>
        </g>
    </g>
</svg>