<?xml version="1.0" encoding="UTF-8"?>
<svg width="469px" height="95px" viewBox="0 0 469 95" version="1.1" xmlns="http://www.w3.org/2000/svg" xmlns:xlink="http://www.w3.org/1999/xlink">
    <!-- Generator: Sketch 53.2 (72643) - https://sketchapp.com -->
    <title>Services</title>
    <desc>Created with Sketch.</desc>
    <g id="Page-1" stroke="none" stroke-width="1" fill="none" fill-rule="evenodd">
        <g id="Homepage" transform="translate(-247.000000, -1266.000000)" fill="#0F111A" fill-rule="nonzero">
            <g id="Services" transform="translate(246.000000, 1266.000000)">
                <path d="M28.8529981,95 C24.6750275,95 20.9226472,94.6540008 17.5957447,93.9619921 C14.2688422,93.2699834 10.5551462,92.347319 6.45454545,91.1939712 C3.74660155,90.4250726 1.92843791,90.0021847 1,89.9252949 L2.04448743,68.5884666 L11.4448743,68.5884666 L13.9980658,83.4665793 C15.0038735,84.5430373 16.802695,85.5041461 19.3945841,86.3499345 C21.9864733,87.1957229 24.9458248,87.6186107 28.2727273,87.6186107 C33.4565056,87.6186107 37.344281,86.4845024 39.9361702,84.2162516 C42.5280594,81.9480009 43.8239845,78.7763419 43.8239845,74.7011796 C43.8239845,72.0100346 43.0502979,69.6841513 41.5029014,67.72346 C39.9555048,65.7627687 37.8278665,63.9943285 35.1199226,62.4180865 C32.4119787,60.8418445 28.6982828,59.0157378 23.9787234,56.9397117 C17.5570279,54.0178971 12.2379321,50.5386834 8.0212766,46.5019659 C3.80462108,42.4652485 1.69632495,36.9869284 1.69632495,30.0668414 C1.69632495,25.7610095 2.8181706,21.8589078 5.06189555,18.3604194 C7.3056205,14.861931 10.6518153,12.0939377 15.1005803,10.0563565 C19.5493453,8.01877531 24.984494,7 31.4061896,7 C35.197311,7 38.5435058,7.26911046 41.4448743,7.80733945 C44.3462427,8.34556844 47.4990159,9.07601111 50.9032882,9.99868938 C52.9149037,10.5369184 54.4235926,10.8829175 55.4294004,11.0366972 L54.7330754,31.2201835 L45.4487427,31.2201835 L43.0116054,17.034076 C42.315277,16.3420673 40.922641,15.6692912 38.8336557,15.0157274 C36.7446704,14.3621636 34.4236104,14.0353866 31.8704062,14.0353866 C27.2282166,14.0353866 23.7272845,15.0926063 21.3675048,17.2070773 C19.0077251,19.3215484 17.827853,22.1472082 17.827853,25.6841415 C17.827853,28.5290662 18.6982505,30.9895047 20.4390716,33.0655308 C22.1798926,35.1415569 24.2881888,36.8907749 26.7640232,38.3132372 C29.2398576,39.7356996 33.1469752,41.754028 38.4854932,44.3682831 C42.8182035,46.4443092 46.5318994,48.4818598 49.6266925,50.4809961 C52.7214855,52.4801323 55.3907044,55.075126 57.6344294,58.266055 C59.8781544,61.4569841 61,65.2053083 61,69.5111402 C61,73.7400823 59.9361809,77.7767392 57.8085106,81.621232 C55.6808404,85.4657248 52.1992505,88.6566059 47.3636364,91.1939712 C42.5280222,93.7313364 36.3578712,95 28.8529981,95 Z M98.9686848,95 C88.8642501,95 81.3434485,92.0209707 76.4060543,86.0628227 C71.4686601,80.1046747 69,71.9748077 69,61.6729776 C69,54.753838 70.2821723,48.7573403 72.8465553,43.6833046 C75.4109384,38.609269 79.0278124,34.7269211 83.697286,32.0361446 C88.3667596,29.3453681 93.7633653,28 99.8872651,28 C107.54214,28 113.436305,30.0180521 117.569937,34.0542169 C121.70357,38.0903816 123.846903,43.8370252 124,51.2943201 C124,56.3683558 123.69381,60.1353864 123.08142,62.595525 L85.7640919,62.595525 C86.0702868,69.5915439 87.7160602,75.0306748 90.7014614,78.9130809 C93.6868625,82.795487 97.9352543,84.7366609 103.446764,84.7366609 C106.432165,84.7366609 109.513206,84.2369528 112.689979,83.2375215 C115.866752,82.2380902 118.373686,81.0464785 120.210856,79.6626506 L123.08142,86.0051635 C121.014603,88.234664 117.665646,90.2911552 113.034447,92.1746988 C108.403248,94.0582423 103.714707,95 98.9686848,95 Z M106.774359,55 C106.924787,52.8787773 107,51.2500057 107,50.1136364 C107,40.0378284 103.653025,35 96.9589744,35 C93.2734858,35 90.4153948,36.477258 88.3846154,39.4318182 C86.353836,42.3863784 85.2256422,47.5757205 85,55 L106.774359,55 Z M134,87.1684211 L141.621622,86.2421053 L141.621622,40.6210526 L134.230958,38.5368421 L134.230958,30.5473684 L152.130221,28.1157895 L152.476658,28.1157895 L155.363636,30.4315789 L155.363636,32.9789474 L155.017199,42.3578947 L155.363636,42.3578947 C155.902542,40.8140274 157.172799,38.9035202 159.174447,36.6263158 C161.176095,34.3491114 163.697364,32.3421139 166.738329,30.6052632 C169.779294,28.8684124 173.070416,28 176.611794,28 C178.305496,28 179.768217,28.2315766 181,28.6947368 L181,46.0631579 C178.690406,44.4420972 175.880442,43.6315789 172.570025,43.6315789 C166.950013,43.6315789 162.061446,45.1368271 157.904177,48.1473684 L157.904177,86.1263158 L171.299754,87.1684211 L171.299754,94 L134,94 L134,87.1684211 Z M182,30 L212.666667,30 L212.666667,36.6843972 L205,38.1826241 L215.570707,69.5301418 L219.287879,81.7464539 L222.424242,69.8758865 L232.762626,38.1826241 L225.444444,36.6843972 L225.444444,30 L251,30 L251,36.6843972 L244.959596,38.1826241 L223.353535,95 L209.878788,95 L186.762626,38.1826241 L182,36.6843972 L182,30 Z M268.717647,18 C266.035281,18 263.911773,17.2270016 262.347059,15.6809816 C260.782345,14.1349616 260,12.1472514 260,9.71779141 C260,6.92023141 260.894109,4.6012362 262.682353,2.7607362 C264.470597,0.920236196 266.854887,0 269.835294,0 C272.815701,0 275.088227,0.791403129 276.652941,2.37423313 C278.217655,3.95706313 279,5.92636859 279,8.28220859 C279,11.2270086 278.105891,13.5828133 276.317647,15.3496933 C274.529403,17.1165733 272.033349,18 268.829412,18 L268.717647,18 Z M262.367857,40.5272408 L254,38.3233743 L254,30.5518453 L275.567857,28 L275.803571,28 L279.103571,30.3198594 L279.103571,86.112478 L287,87.0404218 L287,94 L254.117857,94 L254.117857,87.0404218 L262.367857,85.9964851 L262.367857,40.5272408 Z M294,62.0189329 C294,55.4073106 295.322996,49.5261302 297.969027,44.3752151 C300.615057,39.2243001 304.41148,35.2074154 309.358407,32.3244406 C314.305334,29.4414658 320.076663,28 326.672566,28 C329.740428,28 332.38642,28.2306345 334.610619,28.6919105 C336.834819,29.1531865 339.32742,29.7682119 342.088496,30.5370052 L345.424779,31.4595525 L344.734513,51.1790017 L334.725664,51.1790017 L331.849558,38.4939759 C331.389378,36.4951134 329.126864,35.4956971 325.061947,35.4956971 C320.76694,35.4956971 317.411517,37.3792124 314.995575,41.1462995 C312.579634,44.9133866 311.333334,50.794567 311.256637,58.7900172 C311.256637,67.2467434 312.71385,73.7237297 315.628319,78.2211704 C318.542787,82.7186111 322.415905,84.9672978 327.247788,84.9672978 C333.076725,84.9672978 338.445403,83.3912952 343.353982,80.2392427 L346,86.2358003 C344.00589,88.3884215 340.957248,90.3872541 336.853982,92.232358 C332.750717,94.0774619 328.321558,95 323.566372,95 C313.749213,95 306.367281,91.9633121 301.420354,85.8898451 C296.473427,79.8163781 294,71.859487 294,62.0189329 Z M384.968685,95 C374.86425,95 367.343448,92.0209707 362.406054,86.0628227 C357.46866,80.1046747 355,71.9748077 355,61.6729776 C355,54.753838 356.282172,48.7573403 358.846555,43.6833046 C361.410938,38.609269 365.027812,34.7269211 369.697286,32.0361446 C374.36676,29.3453681 379.763365,28 385.887265,28 C393.54214,28 399.436305,30.0180521 403.569937,34.0542169 C407.70357,38.0903816 409.846903,43.8370252 410,51.2943201 C410,56.3683558 409.69381,60.1353864 409.08142,62.595525 L371.764092,62.595525 C372.070287,69.5915439 373.71606,75.0306748 376.701461,78.9130809 C379.686863,82.795487 383.935254,84.7366609 389.446764,84.7366609 C392.432165,84.7366609 395.513206,84.2369528 398.689979,83.2375215 C401.866752,82.2380902 404.373686,81.0464785 406.210856,79.6626506 L409.08142,86.0051635 C407.014603,88.234664 403.665646,90.2911552 399.034447,92.1746988 C394.403248,94.0582423 389.714707,95 384.968685,95 Z M392.774359,55 C392.924787,52.8787773 393,51.2500057 393,50.1136364 C393,40.0378284 389.653025,35 382.958974,35 C379.273486,35 376.415395,36.477258 374.384615,39.4318182 C372.353836,42.3863784 371.225642,47.5757205 371,55 L392.774359,55 Z M432.268519,84.238342 C432.885806,85.1640806 434.29397,86.0319476 436.493056,86.8419689 C438.692141,87.6519902 440.910483,88.0569948 443.148148,88.0569948 C446.774709,88.0569948 449.49459,87.3048434 451.30787,85.8005181 C453.121151,84.2961928 454.027778,82.3097418 454.027778,79.8411054 C454.027778,77.2953241 452.908962,75.2317293 450.671296,73.6502591 C448.433631,72.0687889 444.652804,70.1209097 439.328704,67.806563 L436.087963,66.417962 C430.763862,64.1807603 426.790137,61.4807297 424.166667,58.3177893 C421.543197,55.1548489 420.231481,51.0662312 420.231481,46.0518135 C420.231481,42.5802935 421.273138,39.4752584 423.356481,36.7366149 C425.439825,33.9979713 428.371895,31.8572328 432.152778,30.3143351 C435.933661,28.7714373 440.293185,28 445.231481,28 C448.858043,28 451.963722,28.2314312 454.548611,28.6943005 C457.133501,29.1571698 459.853381,29.7743197 462.708333,30.5457686 C464.251551,31.0857828 465.408947,31.3943577 466.180556,31.4715026 L466.180556,46.6303972 L457.037037,46.6303972 L454.375,37.835924 C453.912035,37.0644751 452.870378,36.3701816 451.25,35.7530225 C449.629622,35.1358634 447.777788,34.8272884 445.694444,34.8272884 C442.530848,34.8272884 440.003867,35.5022961 438.113426,36.8523316 C436.222984,38.2023671 435.277778,40.0731026 435.277778,42.4645941 C435.277778,44.624651 435.933635,46.4182427 437.24537,47.8454231 C438.557105,49.2726036 439.98456,50.3719017 441.527778,51.1433506 C443.070995,51.9147995 445.925905,53.187671 450.092593,54.9620035 C454.25928,56.7363359 457.712178,58.4334979 460.451389,60.0535406 C463.1906,61.6735832 465.466812,63.7757499 467.280093,66.3601036 C469.093373,68.9444574 470,72.0880644 470,75.791019 C470,81.4997407 467.762368,86.1283645 463.287037,89.6770294 C458.811706,93.2256942 452.368869,95 443.958333,95 C440.023128,95 436.493071,94.6528532 433.368056,93.9585492 C430.24304,93.2642452 426.635823,92.3385205 422.546296,91.1813472 L420,90.3713299 L420,75.0967185 L429.606481,75.0967185 L432.268519,84.238342 Z"></path>
            </g>
        </g>
    </g>
</svg>